# xmcd
# 
# Track frame offsets:
#   150
#   16200
#   36450
#   52500
#   62925
#   76875
#   91350
#   101775
#   116400
#   129825
#   143625
#   155475
#   167550
#   181875
#   194475
# 
# Disc length: 2765 seconds
# 
# Revision: 2
# Processed by: cddbd v1.5.2PL0 Copyright (c) Steve Scherf et al.
# Submitted via: Synapstar 1.0 
# 
DISCID=bc0acb0f
DTITLE=Various Artist - DKM3041
DYEAR=1900
DGENRE=Country
TTITLE0=Merle Haggard and Willie Nelson - Reasons To Quit
TTITLE1=Merle Haggard - Are The Good Times Really Over
TTITLE2=Merle Haggard - Twinkle Twinkle Lucky Star
TTITLE3=Merle Haggard - Today I Started Loving You Again
TTITLE4=Merle Haggard - Ramblin' Fever
TTITLE5=Merle Haggard - My Favorite Memory
TTITLE6=Merle Haggard - Mama Tried
TTITLE7=Merle Haggard - I Think I'll Just Stay Here and Drink
TTITLE8=Merle Haggard - Emptiest Arms In The World
TTITLE9=Merle Haggard - Big City
TTITLE10=Merle Haggard - Back To The Barrooms Again
TTITLE11=Merle Haggard - Carolyn
TTITLE12=Merle Haggard - Chill Factor
TTITLE13=Merle Haggard - If We Make It Through December
TTITLE14=Merle Haggard - It's Been A Great Afternoon
EXTD=MediaType: Karaoke CD+G Producer: DK
EXTT0=
EXTT1=
EXTT2=
EXTT3=
EXTT4=
EXTT5=
EXTT6=
EXTT7=
EXTT8=
EXTT9=
EXTT10=
EXTT11=
EXTT12=
EXTT13=
EXTT14=
PLAYORDER=
